<?xml version="1.0" standalone="no"?>
<!DOCTYPE svg PUBLIC "-//W3C//DTD SVG 20010904//EN"
 "http://www.w3.org/TR/2001/REC-SVG-20010904/DTD/svg10.dtd">
<svg version="1.0" xmlns="http://www.w3.org/2000/svg"
 width="420.000000pt" height="420.000000pt" viewBox="0 0 420.000000 420.000000"
 preserveAspectRatio="xMidYMid meet">
<metadata>
Created by potrace 1.11, written by Peter Selinger 2001-2013
</metadata>
<g transform="translate(0.000000,420.000000) scale(0.100000,-0.100000)"
fill="#000000" stroke="none">
<path d="M3426 3398 c3 -5 10 -6 15 -3 13 9 11 12 -6 12 -8 0 -12 -4 -9 -9z"/>
<path d="M3670 3256 c0 -2 8 -10 18 -17 15 -13 16 -12 3 4 -13 16 -21 21 -21
13z"/>
<path d="M3420 3166 c0 -2 8 -10 18 -17 15 -13 16 -12 3 4 -13 16 -21 21 -21
13z"/>
<path d="M1590 3081 c0 -6 4 -13 10 -16 6 -3 7 1 4 9 -7 18 -14 21 -14 7z"/>
<path d="M1340 3006 c0 -2 8 -10 18 -17 15 -13 16 -12 3 4 -13 16 -21 21 -21
13z"/>
<path d="M3359 2993 c-13 -16 -12 -17 4 -4 16 13 21 21 13 21 -2 0 -10 -8 -17
-17z"/>
<path d="M625 2920 c-3 -6 1 -7 9 -4 18 7 21 14 7 14 -6 0 -13 -4 -16 -10z"/>
<path d="M3269 2843 c-13 -16 -12 -17 4 -4 16 13 21 21 13 21 -2 0 -10 -8 -17
-17z"/>
<path d="M1710 2761 c0 -6 4 -13 10 -16 6 -3 7 1 4 9 -7 18 -14 21 -14 7z"/>
<path d="M832 2750 l-613 -5 75 -30 c42 -16 76 -34 76 -38 0 -5 4 -6 9 -2 5 3
17 -2 25 -11 9 -8 16 -13 16 -10 0 3 23 -8 50 -25 28 -17 48 -35 45 -40 -4 -5
0 -6 8 -4 7 3 44 -20 82 -52 83 -70 168 -190 169 -238 1 -18 4 -31 7 -29 14 8
20 -48 7 -64 -11 -13 -11 -14 0 -8 21 13 6 -110 -18 -151 -11 -19 -20 -36 -20
-38 0 -2 37 -1 83 3 45 4 169 7 275 6 157 0 195 -3 203 -15 6 -10 9 -10 9 -1
0 6 5 12 11 12 5 0 8 -3 6 -7 -3 -5 14 -8 36 -9 119 -1 387 -94 447 -154 11
-11 20 -17 20 -14 0 4 7 1 15 -6 8 -7 12 -17 8 -23 -3 -6 -1 -7 6 -3 7 5 31
-12 63 -43 45 -45 49 -53 37 -68 -12 -16 -12 -17 2 -5 13 10 18 10 27 -1 21
-24 92 -172 92 -189 0 -10 5 -18 10 -18 6 0 10 8 10 17 0 53 141 273 170 266
6 -2 9 3 7 10 -1 6 4 11 10 10 7 -2 12 3 10 10 -1 6 6 11 15 11 10 -1 16 3 15
9 -3 14 113 84 198 119 83 34 191 61 207 52 6 -4 8 -3 5 3 -14 22 204 42 231
22 15 -13 16 -12 3 4 -13 16 -4 17 180 13 107 -3 219 -8 249 -12 54 -6 55 -6
38 13 -40 44 -51 110 -39 236 1 5 7 5 14 1 9 -6 9 -5 0 7 -10 13 -6 29 22 88
26 53 54 91 111 146 42 41 80 75 84 75 5 0 15 6 22 13 27 27 165 102 263 142
l60 24 -634 1 -633 0 6 -22 c4 -13 10 -57 13 -98 15 -195 -97 -320 -277 -307
-130 9 -216 87 -234 213 -13 85 -28 154 -36 154 -4 0 -11 -16 -14 -35 -5 -23
-18 -43 -41 -61 l-34 -26 -31 22 c-33 23 -54 64 -46 87 3 7 0 12 -7 10 -7 -1
-11 5 -9 13 2 8 0 12 -4 7 -4 -4 -9 -24 -10 -45 -1 -20 -5 -47 -7 -59 -3 -11
-9 -42 -12 -67 -4 -25 -11 -46 -16 -46 -5 0 -6 -6 -3 -14 8 -21 -57 -98 -105
-125 -63 -35 -159 -40 -233 -11 -109 41 -164 141 -154 282 2 40 7 85 11 99 5
21 2 27 -12 30 -10 2 -294 2 -631 -1z"/>
<path d="M2670 2521 c0 -6 4 -13 10 -16 6 -3 7 1 4 9 -7 18 -14 21 -14 7z"/>
<path d="M1196 1967 c3 -10 9 -15 12 -12 3 3 0 11 -7 18 -10 9 -11 8 -5 -6z"/>
<path d="M550 1881 c0 -6 4 -13 10 -16 6 -3 7 1 4 9 -7 18 -14 21 -14 7z"/>
<path d="M2947 1879 c7 -7 15 -10 18 -7 3 3 -2 9 -12 12 -14 6 -15 5 -6 -5z"/>
<path d="M2710 1806 c0 -2 7 -7 16 -10 8 -3 12 -2 9 4 -6 10 -25 14 -25 6z"/>
<path d="M990 1736 c0 -2 8 -10 18 -17 15 -13 16 -12 3 4 -13 16 -21 21 -21
13z"/>
<path d="M3115 1609 c-4 -6 -5 -12 -2 -15 2 -3 7 2 10 11 7 17 1 20 -8 4z"/>
</g>
</svg>
